<mxfile host="app.diagrams.net" agent="Mozilla/5.0 (Windows NT 10.0; Win64; x64) AppleWebKit/537.36 (KHTML, like Gecko) Chrome/141.0.0.0 Safari/537.36" version="28.2.7">
  <diagram id="C5RBs43oDa-KdzZeNtuy" name="Page-1">
    <mxGraphModel dx="1042" dy="527" grid="1" gridSize="10" guides="1" tooltips="1" connect="1" arrows="1" fold="1" page="1" pageScale="1" pageWidth="827" pageHeight="1169" math="0" shadow="0">
      <root>
        <mxCell id="WIyWlLk6GJQsqaUBKTNV-0" />
        <mxCell id="WIyWlLk6GJQsqaUBKTNV-1" parent="WIyWlLk6GJQsqaUBKTNV-0" />
        <mxCell id="SaGci1Ksdv7Baf8N2HXr-33" value="" style="edgeStyle=orthogonalEdgeStyle;rounded=0;orthogonalLoop=1;jettySize=auto;html=1;" edge="1" parent="WIyWlLk6GJQsqaUBKTNV-1" source="SaGci1Ksdv7Baf8N2HXr-10" target="SaGci1Ksdv7Baf8N2HXr-32">
          <mxGeometry relative="1" as="geometry" />
        </mxCell>
        <mxCell id="SaGci1Ksdv7Baf8N2HXr-10" value="" style="rounded=1;whiteSpace=wrap;html=1;glass=0;strokeWidth=1;shadow=0;" vertex="1" parent="WIyWlLk6GJQsqaUBKTNV-1">
          <mxGeometry x="295" y="260" width="250" height="220" as="geometry" />
        </mxCell>
        <mxCell id="WIyWlLk6GJQsqaUBKTNV-2" value="" style="rounded=0;html=1;jettySize=auto;orthogonalLoop=1;fontSize=11;endArrow=block;endFill=0;endSize=8;strokeWidth=1;shadow=0;labelBackgroundColor=none;edgeStyle=orthogonalEdgeStyle;entryX=0.5;entryY=0;entryDx=0;entryDy=0;" parent="WIyWlLk6GJQsqaUBKTNV-1" source="WIyWlLk6GJQsqaUBKTNV-3" target="SaGci1Ksdv7Baf8N2HXr-0" edge="1">
          <mxGeometry relative="1" as="geometry">
            <mxPoint x="390" y="100" as="targetPoint" />
          </mxGeometry>
        </mxCell>
        <mxCell id="WIyWlLk6GJQsqaUBKTNV-3" value="Database Planning" style="rounded=1;whiteSpace=wrap;html=1;fontSize=12;glass=0;strokeWidth=1;shadow=0;" parent="WIyWlLk6GJQsqaUBKTNV-1" vertex="1">
          <mxGeometry x="360" y="20" width="120" height="40" as="geometry" />
        </mxCell>
        <mxCell id="SaGci1Ksdv7Baf8N2HXr-5" value="" style="edgeStyle=orthogonalEdgeStyle;rounded=0;orthogonalLoop=1;jettySize=auto;html=1;" edge="1" parent="WIyWlLk6GJQsqaUBKTNV-1" source="SaGci1Ksdv7Baf8N2HXr-0" target="SaGci1Ksdv7Baf8N2HXr-4">
          <mxGeometry relative="1" as="geometry" />
        </mxCell>
        <mxCell id="SaGci1Ksdv7Baf8N2HXr-0" value="System Definition" style="rounded=1;whiteSpace=wrap;html=1;fontSize=12;glass=0;strokeWidth=1;shadow=0;" vertex="1" parent="WIyWlLk6GJQsqaUBKTNV-1">
          <mxGeometry x="360" y="110" width="120" height="40" as="geometry" />
        </mxCell>
        <mxCell id="SaGci1Ksdv7Baf8N2HXr-27" value="" style="edgeStyle=orthogonalEdgeStyle;rounded=0;orthogonalLoop=1;jettySize=auto;html=1;entryX=0.42;entryY=-0.04;entryDx=0;entryDy=0;entryPerimeter=0;" edge="1" parent="WIyWlLk6GJQsqaUBKTNV-1" source="SaGci1Ksdv7Baf8N2HXr-4" target="SaGci1Ksdv7Baf8N2HXr-12">
          <mxGeometry relative="1" as="geometry">
            <mxPoint x="420" y="296" as="targetPoint" />
          </mxGeometry>
        </mxCell>
        <mxCell id="SaGci1Ksdv7Baf8N2HXr-34" style="edgeStyle=orthogonalEdgeStyle;rounded=0;orthogonalLoop=1;jettySize=auto;html=1;exitX=0;exitY=0.5;exitDx=0;exitDy=0;entryX=-0.015;entryY=0.4;entryDx=0;entryDy=0;entryPerimeter=0;" edge="1" parent="WIyWlLk6GJQsqaUBKTNV-1" source="SaGci1Ksdv7Baf8N2HXr-4" target="SaGci1Ksdv7Baf8N2HXr-32">
          <mxGeometry relative="1" as="geometry">
            <mxPoint x="80" y="630" as="targetPoint" />
            <Array as="points">
              <mxPoint x="60" y="200" />
              <mxPoint x="60" y="620" />
            </Array>
          </mxGeometry>
        </mxCell>
        <mxCell id="SaGci1Ksdv7Baf8N2HXr-4" value="Requirements Collection and Analysis" style="whiteSpace=wrap;html=1;rounded=1;glass=0;strokeWidth=1;shadow=0;" vertex="1" parent="WIyWlLk6GJQsqaUBKTNV-1">
          <mxGeometry x="360" y="170" width="120" height="60" as="geometry" />
        </mxCell>
        <mxCell id="SaGci1Ksdv7Baf8N2HXr-15" value="" style="edgeStyle=orthogonalEdgeStyle;rounded=0;orthogonalLoop=1;jettySize=auto;html=1;" edge="1" parent="WIyWlLk6GJQsqaUBKTNV-1" target="SaGci1Ksdv7Baf8N2HXr-14">
          <mxGeometry relative="1" as="geometry">
            <mxPoint x="420" y="332" as="sourcePoint" />
          </mxGeometry>
        </mxCell>
        <mxCell id="SaGci1Ksdv7Baf8N2HXr-12" value="Conceptual DB Design" style="rounded=1;whiteSpace=wrap;html=1;" vertex="1" parent="WIyWlLk6GJQsqaUBKTNV-1">
          <mxGeometry x="365" y="300" width="130" height="30" as="geometry" />
        </mxCell>
        <mxCell id="SaGci1Ksdv7Baf8N2HXr-17" value="" style="edgeStyle=orthogonalEdgeStyle;rounded=0;orthogonalLoop=1;jettySize=auto;html=1;" edge="1" parent="WIyWlLk6GJQsqaUBKTNV-1" source="SaGci1Ksdv7Baf8N2HXr-14" target="SaGci1Ksdv7Baf8N2HXr-16">
          <mxGeometry relative="1" as="geometry" />
        </mxCell>
        <mxCell id="SaGci1Ksdv7Baf8N2HXr-14" value="Logical DB Design" style="whiteSpace=wrap;html=1;rounded=1;" vertex="1" parent="WIyWlLk6GJQsqaUBKTNV-1">
          <mxGeometry x="360" y="360" width="120" height="30" as="geometry" />
        </mxCell>
        <mxCell id="SaGci1Ksdv7Baf8N2HXr-16" value="Physical DB Design" style="whiteSpace=wrap;html=1;rounded=1;" vertex="1" parent="WIyWlLk6GJQsqaUBKTNV-1">
          <mxGeometry x="360" y="420" width="120" height="30" as="geometry" />
        </mxCell>
        <mxCell id="SaGci1Ksdv7Baf8N2HXr-18" value="DB Design" style="rounded=1;whiteSpace=wrap;html=1;" vertex="1" parent="WIyWlLk6GJQsqaUBKTNV-1">
          <mxGeometry x="310" y="270" width="90" height="20" as="geometry" />
        </mxCell>
        <mxCell id="SaGci1Ksdv7Baf8N2HXr-22" value="DBMS Selection&lt;br&gt;(Optional)" style="rounded=1;whiteSpace=wrap;html=1;fontSize=12;glass=0;strokeWidth=1;shadow=0;" vertex="1" parent="WIyWlLk6GJQsqaUBKTNV-1">
          <mxGeometry x="140" y="310" width="120" height="40" as="geometry" />
        </mxCell>
        <mxCell id="SaGci1Ksdv7Baf8N2HXr-23" value="" style="endArrow=classic;html=1;rounded=0;entryX=1;entryY=0.25;entryDx=0;entryDy=0;exitX=0;exitY=0.5;exitDx=0;exitDy=0;" edge="1" parent="WIyWlLk6GJQsqaUBKTNV-1" source="SaGci1Ksdv7Baf8N2HXr-12" target="SaGci1Ksdv7Baf8N2HXr-22">
          <mxGeometry width="50" height="50" relative="1" as="geometry">
            <mxPoint x="390" y="300" as="sourcePoint" />
            <mxPoint x="440" y="250" as="targetPoint" />
          </mxGeometry>
        </mxCell>
        <mxCell id="SaGci1Ksdv7Baf8N2HXr-24" value="Application Design" style="rounded=1;whiteSpace=wrap;html=1;fontSize=12;glass=0;strokeWidth=1;shadow=0;" vertex="1" parent="WIyWlLk6GJQsqaUBKTNV-1">
          <mxGeometry x="620" y="320" width="120" height="40" as="geometry" />
        </mxCell>
        <mxCell id="SaGci1Ksdv7Baf8N2HXr-25" value="" style="rounded=0;html=1;jettySize=auto;orthogonalLoop=1;fontSize=11;endArrow=block;endFill=0;endSize=8;strokeWidth=1;shadow=0;labelBackgroundColor=none;edgeStyle=orthogonalEdgeStyle;entryX=0.583;entryY=0.01;entryDx=0;entryDy=0;entryPerimeter=0;" edge="1" parent="WIyWlLk6GJQsqaUBKTNV-1" target="SaGci1Ksdv7Baf8N2HXr-24">
          <mxGeometry relative="1" as="geometry">
            <mxPoint x="490" y="200" as="sourcePoint" />
            <mxPoint x="880" y="330" as="targetPoint" />
            <Array as="points">
              <mxPoint x="690" y="200" />
            </Array>
          </mxGeometry>
        </mxCell>
        <mxCell id="SaGci1Ksdv7Baf8N2HXr-32" value="Prototyping Optional" style="whiteSpace=wrap;html=1;rounded=1;glass=0;strokeWidth=1;shadow=0;" vertex="1" parent="WIyWlLk6GJQsqaUBKTNV-1">
          <mxGeometry x="180" y="600" width="130" height="50" as="geometry" />
        </mxCell>
        <mxCell id="SaGci1Ksdv7Baf8N2HXr-36" value="" style="endArrow=classic;startArrow=classic;html=1;rounded=0;entryX=0;entryY=0.5;entryDx=0;entryDy=0;" edge="1" parent="WIyWlLk6GJQsqaUBKTNV-1" source="SaGci1Ksdv7Baf8N2HXr-10" target="SaGci1Ksdv7Baf8N2HXr-24">
          <mxGeometry width="50" height="50" relative="1" as="geometry">
            <mxPoint x="390" y="460" as="sourcePoint" />
            <mxPoint x="440" y="410" as="targetPoint" />
          </mxGeometry>
        </mxCell>
        <mxCell id="SaGci1Ksdv7Baf8N2HXr-37" value="" style="endArrow=classic;html=1;rounded=0;" edge="1" parent="WIyWlLk6GJQsqaUBKTNV-1">
          <mxGeometry width="50" height="50" relative="1" as="geometry">
            <mxPoint x="420" y="540" as="sourcePoint" />
            <mxPoint x="610" y="590" as="targetPoint" />
            <Array as="points" />
          </mxGeometry>
        </mxCell>
        <mxCell id="SaGci1Ksdv7Baf8N2HXr-40" value="" style="edgeStyle=orthogonalEdgeStyle;rounded=0;orthogonalLoop=1;jettySize=auto;html=1;" edge="1" parent="WIyWlLk6GJQsqaUBKTNV-1" source="SaGci1Ksdv7Baf8N2HXr-38" target="SaGci1Ksdv7Baf8N2HXr-39">
          <mxGeometry relative="1" as="geometry" />
        </mxCell>
        <mxCell id="SaGci1Ksdv7Baf8N2HXr-38" value="Implementation" style="rounded=1;whiteSpace=wrap;html=1;fontSize=12;glass=0;strokeWidth=1;shadow=0;" vertex="1" parent="WIyWlLk6GJQsqaUBKTNV-1">
          <mxGeometry x="610" y="585" width="120" height="40" as="geometry" />
        </mxCell>
        <mxCell id="SaGci1Ksdv7Baf8N2HXr-42" value="" style="edgeStyle=orthogonalEdgeStyle;rounded=0;orthogonalLoop=1;jettySize=auto;html=1;" edge="1" parent="WIyWlLk6GJQsqaUBKTNV-1" source="SaGci1Ksdv7Baf8N2HXr-39" target="SaGci1Ksdv7Baf8N2HXr-41">
          <mxGeometry relative="1" as="geometry" />
        </mxCell>
        <mxCell id="SaGci1Ksdv7Baf8N2HXr-39" value="Data Conversion and Loading" style="whiteSpace=wrap;html=1;rounded=1;glass=0;strokeWidth=1;shadow=0;" vertex="1" parent="WIyWlLk6GJQsqaUBKTNV-1">
          <mxGeometry x="610" y="650" width="120" height="60" as="geometry" />
        </mxCell>
        <mxCell id="SaGci1Ksdv7Baf8N2HXr-44" value="" style="edgeStyle=orthogonalEdgeStyle;rounded=0;orthogonalLoop=1;jettySize=auto;html=1;" edge="1" parent="WIyWlLk6GJQsqaUBKTNV-1" source="SaGci1Ksdv7Baf8N2HXr-41" target="SaGci1Ksdv7Baf8N2HXr-43">
          <mxGeometry relative="1" as="geometry" />
        </mxCell>
        <mxCell id="SaGci1Ksdv7Baf8N2HXr-41" value="Testing" style="whiteSpace=wrap;html=1;rounded=1;glass=0;strokeWidth=1;shadow=0;" vertex="1" parent="WIyWlLk6GJQsqaUBKTNV-1">
          <mxGeometry x="610" y="730" width="120" height="60" as="geometry" />
        </mxCell>
        <mxCell id="SaGci1Ksdv7Baf8N2HXr-43" value="Operational Maintenance" style="whiteSpace=wrap;html=1;rounded=1;glass=0;strokeWidth=1;shadow=0;" vertex="1" parent="WIyWlLk6GJQsqaUBKTNV-1">
          <mxGeometry x="610" y="820" width="120" height="60" as="geometry" />
        </mxCell>
        <mxCell id="SaGci1Ksdv7Baf8N2HXr-45" value="" style="endArrow=classic;html=1;rounded=0;exitX=0;exitY=0.5;exitDx=0;exitDy=0;entryX=0;entryY=0.5;entryDx=0;entryDy=0;" edge="1" parent="WIyWlLk6GJQsqaUBKTNV-1" source="SaGci1Ksdv7Baf8N2HXr-43" target="WIyWlLk6GJQsqaUBKTNV-3">
          <mxGeometry width="50" height="50" relative="1" as="geometry">
            <mxPoint x="610" y="1004.5" as="sourcePoint" />
            <mxPoint x="30" y="30" as="targetPoint" />
            <Array as="points">
              <mxPoint x="20" y="850" />
              <mxPoint x="20" y="40" />
            </Array>
          </mxGeometry>
        </mxCell>
        <mxCell id="SaGci1Ksdv7Baf8N2HXr-46" value="" style="endArrow=classic;html=1;rounded=0;exitX=0.577;exitY=0.99;exitDx=0;exitDy=0;exitPerimeter=0;" edge="1" parent="WIyWlLk6GJQsqaUBKTNV-1" source="SaGci1Ksdv7Baf8N2HXr-24">
          <mxGeometry width="50" height="50" relative="1" as="geometry">
            <mxPoint x="390" y="390" as="sourcePoint" />
            <mxPoint x="420" y="510" as="targetPoint" />
            <Array as="points">
              <mxPoint x="689" y="510" />
            </Array>
          </mxGeometry>
        </mxCell>
      </root>
    </mxGraphModel>
  </diagram>
</mxfile>
